<svg width="1000" height="1000" viewBox="0 0 1000 1000" fill="none" xmlns="http://www.w3.org/2000/svg">
<rect width="1000" height="1000" rx="100" fill="white"/>
<path d="M50 194C50 143.595 50 118.393 59.8094 99.1409C68.438 82.2063 82.2063 68.438 99.1409 59.8094C118.393 50 143.595 50 194 50H806C856.405 50 881.607 50 900.859 59.8094C917.794 68.438 931.562 82.2063 940.191 99.1409C950 118.393 950 143.595 950 194V806C950 856.405 950 881.607 940.191 900.859C931.562 917.794 917.794 931.562 900.859 940.191C881.607 950 856.405 950 806 950H194C143.595 950 118.393 950 99.1409 940.191C82.2063 931.562 68.438 917.794 59.8094 900.859C50 881.607 50 856.405 50 806V194Z" fill="#1D1D1D"/>
<path d="M100 228C100 183.196 100 160.794 108.719 143.681C116.389 128.628 128.628 116.389 143.681 108.719C160.794 100 183.196 100 228 100H772C816.804 100 839.206 100 856.319 108.719C871.372 116.389 883.611 128.628 891.281 143.681C900 160.794 900 183.196 900 228V772C900 816.804 900 839.206 891.281 856.319C883.611 871.372 871.372 883.611 856.319 891.281C839.206 900 816.804 900 772 900H228C183.196 900 160.794 900 143.681 891.281C128.628 883.611 116.389 871.372 108.719 856.319C100 839.206 100 816.804 100 772V228Z" fill="#474545"/>
<path d="M200 185L307.045 292.045L200 399.09" stroke="white" stroke-width="40"/>
<path d="M307.045 399.09H542" stroke="white" stroke-width="40"/>
</svg>
